<?xml version="1.0" standalone="no"?><svg xmlns="http://www.w3.org/2000/svg" viewBox="0 0 1440 320"><path fill="#171717" fill-opacity="1" d="M0,32L30,37.3C60,43,120,53,180,74.7C240,96,300,128,360,170.7C420,213,480,267,540,266.7C600,267,660,213,720,192C780,171,840,181,900,165.3C960,149,1020,107,1080,122.7C1140,139,1200,213,1260,245.3C1320,277,1380,267,1410,261.3L1440,256L1440,320L1410,320C1380,320,1320,320,1260,320C1200,320,1140,320,1080,320C1020,320,960,320,900,320C840,320,780,320,720,320C660,320,600,320,540,320C480,320,420,320,360,320C300,320,240,320,180,320C120,320,60,320,30,320L0,320Z"></path></svg>